# xmcd
#
# Track frame offsets: 
#        150
#        13167
#        34107
#        59635
#        79647
#        105900
#        119900
#        142862
#        165760
#        186612
#        204322
#        226802
#        254292
#        283487
#
# Disc length: 4145 seconds
#
# Revision: 0
# Processed by: cddbd v1.5.2PL0 Copyright (c) Steve Scherf et al.
# Submitted via: ExactAudioCopy v0.95b4
#
DISCID=c2102f0e
DTITLE=Doc Houlind - New Orleans Sessions
DYEAR=1995
DGENRE=Blues
TTITLE0=Sweet Georgia brown
TTITLE1=Trouble in mind
TTITLE2=Bye bye blackbird
TTITLE3=St. louis blues 
TTITLE4=Second line
TTITLE5=St. james infirmary
TTITLE6=Shake it and brake it
TTITLE7=Memories of you
TTITLE8=All my eggs in one basket
TTITLE9=West end blues
TTITLE10=Big butter and eggs man
TTITLE11=I've got the right to sing the blues
TTITLE12=Strutting with sme barbecue
TTITLE13=Stardust
EXTD=
EXTT0=
EXTT1=
EXTT2=
EXTT3=
EXTT4=
EXTT5=
EXTT6=
EXTT7=
EXTT8=
EXTT9=
EXTT10=
EXTT11=
EXTT12=
EXTT13=
PLAYORDER=
